<svg xmlns="http://www.w3.org/2000/svg" viewBox="0 0 1912.27 582.75"><defs><style>.cls-1{fill:#fff;}</style></defs><g id="Layer_2" data-name="Layer 2"><g id="Layer_1-2" data-name="Layer 1"><path d="M1618.33,301.64V308q0,32.79,0,65.58c0,2.59-.1,5.17-.14,7.75-.1,5.29-1.45,10.13-6.8,12.2-6,2.3-11.82,1.61-16.7-2.86a21.76,21.76,0,0,1-7.11-16.49c0-6.16-.14-12.32,0-18.48q1.89-79.85,3.85-159.69c.21-8.74.14-17.49.21-26.23,0-2.19-.05-4.39.15-6.56a14.83,14.83,0,0,1,29.58.26,102,102,0,0,1,0,11.33c-.9,19-2,38.09-2.77,57.15-.3,7.1,0,14.22,0,22.27,1.87-1.67,3.44-3,4.91-4.41,20.2-19.76,38.71-41.06,57-62.54q11.8-13.83,23.69-27.59a40,40,0,0,1,3.66-3.92c5.58-4.94,12.74-5.19,18.54-.74s7.92,11.45,4.42,18a114.4,114.4,0,0,1-9.73,15c-16,21.08-34.22,40.27-52.48,59.39-8.1,8.48-16.43,16.74-24.64,25.11-1.38,1.4-2.73,2.84-4.32,4.5a29.62,29.62,0,0,0,2.22,2.84c21.41,21.32,43,42.46,66.23,61.82a65.64,65.64,0,0,0,20.48,11.92c.94.32,1.86.69,2.78,1.05,12.35,4.94,11.45,18.39,5.48,25.17a11.46,11.46,0,0,1-11.27,4c-5.58-1.17-11.46-2.29-16.38-5a187.48,187.48,0,0,1-25-16.14,291.28,291.28,0,0,1-24.08-21.33c-12.28-11.89-24.18-24.17-36.26-36.26-1.38-1.39-2.86-2.67-4.29-4Z"/><path d="M1318.16,300.59c-6.6,1.06-12.84,1.87-19,3.11-18.69,3.75-37.32,7.77-56,11.43-3.25.63-4.56,2.27-5.78,5-7.28,16.53-14.75,33-22.18,49.45a37.64,37.64,0,0,1-2.79,5.25,14.28,14.28,0,0,1-18.28,5.36c-7.17-3.24-10.76-10.18-8.25-17.6,2.86-8.45,6.3-16.71,9.79-24.92,3.19-7.49,6.71-14.84,10.21-22.19a7.59,7.59,0,0,0,.36-6.18c-3.28-9.87-.1-16.95,9.47-20.45,3.4-1.24,5-3.42,6.55-6.28,18.73-34.16,38.63-67.62,60.71-99.73a204.87,204.87,0,0,1,16.67-21c6-6.66,13.94-5.78,18.78,1.94a34.86,34.86,0,0,1,4.7,12.09c8.77,49.47,19.94,98.44,30.49,147.54,1.91,8.86,5.76,17.3,8.61,26a156,156,0,0,1,4.63,15.38c1.78,8.09-3.4,15.66-11.42,17.52-4.66,1.08-8.92.14-12-3.38a54.35,54.35,0,0,1-7.78-11.16c-6.4-12.7-9.51-26.48-12.27-40.32C1321.59,318.77,1320,310,1318.16,300.59Zm-18.58-86.67-1.29-.21c-13.52,21.85-27,43.71-41.13,66.51l54.19-10.91Z"/><path d="M1453.18,186.35c-2.32,0-4.25,0-6.18,0-10.33.19-20.67.11-31,.68-10.92.59-18.52-8.63-15.76-20.43a12.31,12.31,0,0,1,10-9.84,42.78,42.78,0,0,1,8.85-1.1c18.87-.17,37.79-1,56.61,0,19.4,1,38.73,3.6,58,5.89,9.33,1.11,13.44,7.24,12.78,17.5-.49,7.72-6.25,13.22-14.83,13.18-7.32,0-14.66-.8-22-1.55-7.1-.73-14.17-1.88-21.26-2.77a39.4,39.4,0,0,0-4.75,0c-6.22,52.71-2.32,105.33-2.94,158.64,2.93.08,6,.26,9.09.24,12.12-.1,24.25,0,36.36-.48a15.26,15.26,0,0,1,15.51,15.91c-.38,8.95-5.88,15-14.89,15.21-13.3.33-26.62.68-39.92.6-15.15-.09-30.13,1.5-45.12,3.43a229.77,229.77,0,0,1-23.74,1.82c-8.74.22-14.73-5.82-15-14.28-.24-9,5.22-15.13,14.15-15.88,10.65-.9,21.3-1.83,32.31-2.77.47-4,1.2-7.28,1.18-10.58-.1-14.88-.56-29.77-.61-44.65-.07-20.05-.22-40.12.29-60.16.38-14.48,1.79-28.93,2.71-43.4C1453.27,190,1453.18,188.44,1453.18,186.35Z"/><path class="cls-1" d="M193.9,192.85c2.16,21.12-.35,41.29-1,61.92a30.61,30.61,0,0,0,4,.16q39.17-3.51,78.34-7.09a32.89,32.89,0,0,1,4.75-.2c10.42.6,16.48,10,12.19,19.5-1.11,2.46-3.69,4.64-6.12,6-2.11,1.21-4.94,1.34-7.49,1.58q-35.88,3.4-71.79,6.68c-5.1.48-10.2,1-15.49,1.49-1.6,13.86-1.65,27.34-1.32,40.81a157.13,157.13,0,0,0,1.36,17.2c1.05,7.75,2.76,9.69,10.62,10.22,9.69.64,19.43.54,29.15.52,7.15,0,14.31-.29,21.45-.67,6.93-.37,13.84-1,20.76-1.58,1.19-.09,2.36-.38,3.55-.42,8.31-.3,13.46,3.66,14.39,11,1.14,8.92-2.42,14.68-10.92,16.16a147.58,147.58,0,0,1-21.9,2.18c-14.9.34-29.82.55-44.7,0-8.27-.3-16.55-1.88-24.69-3.55-11.13-2.29-18-9.48-21.2-20.31a94.2,94.2,0,0,1-4.16-27c0-15.48.54-31,.83-46.45,0-1.78.39-3.68-.1-5.32-1.42-4.8-.59-9.13.76-13.91,1.52-5.44,1.45-11.36,1.76-17.09.58-10.91,1.25-21.83,1.29-32.74,0-7.31-1-14.62-1.53-21.94-.32-4.75-.9-9.52-.68-14.25.48-10.58,9.39-16,18.9-11.35a11.68,11.68,0,0,0,9,.77c22.86-6,46-8.64,69.65-6.16,10.5,1.1,20.91,2.67,30.68,6.87,8,3.42,10.76,11.84,6.71,19.31-3.09,5.69-8.3,8-15.12,6.32-12-3-24.05-5.27-36.41-5.75C230.58,185.11,212.27,188.1,193.9,192.85Z"/><path class="cls-1" d="M772.08,257.3c4.09-3.6,8-7,11.82-10.4,12.9-11.42,27.68-16.77,45-14,12.7,2,21.37,8.87,24.15,21.47a154.32,154.32,0,0,1,3.43,27.1c.88,22.66,2.57,45.21,6.29,67.58.52,3.13,1.31,6.22,1.89,9.34,1.32,7.15-2.51,13.5-9.15,15.25-7.48,2-14-1.06-15.95-8.57-2.34-9-3.86-18.24-5.35-27.44-2.7-16.73-3-33.59-2.42-50.52a77.46,77.46,0,0,0-1.36-17.73c-1.64-8.24-5.76-10.88-14.1-10S800.94,264.2,794.87,270c-6.45,6.1-10.53,13.88-15.34,21.18s-6.77,15.13-6.64,24.07c.19,12.28-1.1,24.59-1.92,36.87a31.14,31.14,0,0,1-1.69,8.14c-2.55,7.32-8.92,10.61-16.08,8.57-7-2-10.35-8.34-8.91-15.86A84.33,84.33,0,0,0,746,338.77c.44-23,.71-46.1.94-69.15.18-18.68-.08-37.37.46-56,.33-11.53,1.24-23-1.34-34.4a32.07,32.07,0,0,1-.3-8.32A12.06,12.06,0,0,1,756.88,159c7.45-.78,12.65,2.08,14,9a128.82,128.82,0,0,1,2.53,23.63c0,15.88-.86,31.77-1.26,47.66C772,245.4,772.08,251.53,772.08,257.3Z"/><path class="cls-1" d="M357,254.4l3.8-4.29c5.52-6.31,11.42-12.19,18.69-16.51,8.09-4.8,16.7-7.1,26.21-5.88,11.53,1.49,19.32,7.72,23.95,18.14,4.11,9.24,5.18,19.12,5.82,29.05a140.47,140.47,0,0,1,.23,15.49c-.88,18.37,1.19,36.47,4.12,54.55a106.2,106.2,0,0,1,1.29,16.62c0,8.91-5.61,14-14.39,13.59-6.48-.33-10.39-3.73-11.38-10.77-1.79-12.78-3.78-25.57-4.66-38.42-.81-11.85-.18-23.79-.37-35.69-.12-7.73,0-15.52-1-23.17-1.55-12.64-8-16.09-19.48-10.15a50,50,0,0,0-13.45,10.57c-11,12-17.87,26.47-21.3,42.08-2.32,10.53-3.58,21.56-2.18,32.56.62,4.93.95,9.9,1.21,14.85.32,6-1.32,11.13-7,14-8.79,4.4-17.94-1.27-18.95-11.14a314.43,314.43,0,0,1,.11-60.66c.66-7.31,1.25-14.66,1.37-22,.19-10.71-.06-21.43-.13-32.15,0-3-.23-6-.05-8.94a12.2,12.2,0,0,1,10.3-11.45c6.71-1.06,11.57,1.33,13.9,7.45a37.27,37.27,0,0,1,2.06,9.83c.34,3.94.08,7.93.08,11.9Z"/><path class="cls-1" d="M575.68,299.81c-.34,18.76-4.82,36.05-15.69,51.66-21,30.2-67.52,31.42-89.25-3.34-7.63-12.19-10.45-25.67-10.67-39.75-.31-19.87,4.95-38.14,17.42-53.88,15.29-19.32,35.49-25.85,59.36-21.57,10,1.8,17.74,7.7,23.8,15.73,7.48,9.9,11.46,21.27,13.31,33.39C574.85,287.92,575.13,293.89,575.68,299.81ZM551.17,302l-.47-.06c-.17-3.57.1-7.22-.58-10.68-1.26-6.38-2.34-12.94-4.8-18.89-4.2-10.14-13-14.72-24-13.87s-19.05,6.21-25,15.14c-7.86,11.84-10.65,25.08-10.11,39.06a41.35,41.35,0,0,0,5.44,19.88c9,15,27.18,19.25,41.75,9.51a35.27,35.27,0,0,0,15.36-21.88C550.17,314.26,550.43,308.07,551.17,302Z"/><path class="cls-1" d="M602.09,312.78c.93-5.89,1.47-12.66,3.11-19.15a113.69,113.69,0,0,1,27-49.73c7.6-8.24,16.73-14.13,28.24-15.05a62.55,62.55,0,0,1,13,.59,77,77,0,0,1,27,8.79,33.7,33.7,0,0,1,8.8,7,12.65,12.65,0,0,1,.42,16.44,10.74,10.74,0,0,1-14.82,2.77,17.64,17.64,0,0,1-2.84-2.17c-8.19-7.79-18.46-8.72-28.91-8.35a17.79,17.79,0,0,0-8.75,3.28,35.19,35.19,0,0,0-8.15,7.73c-9.39,12.31-16.25,25.93-18.94,41.26a46.31,46.31,0,0,0-.06,15.36c2.39,14.17,13.34,24.32,28.07,27.19,10.37,2,20.11.7,29.33-4.56q6.46-3.69,13.12-7c5.61-2.82,10.06-2,13.89,2.49,4,4.64,4.61,10.68.77,15.24a37.24,37.24,0,0,1-9,7.6A92,92,0,0,1,677,373.2c-24.52,5.9-58-5.13-70.14-35.11a53.11,53.11,0,0,1-3-10.27C603.08,323.16,602.75,318.4,602.09,312.78Z"/><path class="cls-1" d="M1299.58,213.92l11.77,55.39-54.19,10.91c14.1-22.8,27.61-44.66,41.13-66.51Z"/><path d="M0,582.07V1.19A4.5,4.5,0,0,1,.49.59,1.13,1.13,0,0,1,1,.32,32.6,32.6,0,0,1,4.54,0Q957.39,0,1910.23.09a9.14,9.14,0,0,1,2,.56v581C1908.06,582.77,9.44,583.24,0,582.07Zm17.84-17.93H1894.35c1.22-12.95.67-541.35-.52-545.69H17.84Z"/><path class="cls-1" d="M17.84,564.14V18.45h1876c1.19,4.34,1.74,532.74.52,545.69Zm46-49.06c14.93,1.37,891.31.72,895.61-.6,1.09-7.9.71-442.38-.43-446.92H63.88ZM1618.33,301.64l1.26-.54c1.43,1.34,2.91,2.62,4.29,4,12.08,12.09,24,24.37,36.26,36.26a291.28,291.28,0,0,0,24.08,21.33,187.48,187.48,0,0,0,25,16.14c4.92,2.68,10.8,3.8,16.38,5a11.46,11.46,0,0,0,11.27-4c6-6.78,6.87-20.23-5.48-25.17-.92-.36-1.84-.73-2.78-1.05a65.64,65.64,0,0,1-20.48-11.92c-23.25-19.36-44.82-40.5-66.23-61.82a29.62,29.62,0,0,1-2.22-2.84c1.59-1.66,2.94-3.1,4.32-4.5,8.21-8.37,16.54-16.63,24.64-25.11,18.26-19.12,36.45-38.31,52.48-59.39a114.4,114.4,0,0,0,9.73-15c3.5-6.51,1.53-13.41-4.42-18s-13-4.2-18.54.74a40,40,0,0,0-3.66,3.92q-11.87,13.77-23.69,27.59c-18.32,21.48-36.83,42.78-57,62.54-1.47,1.43-3,2.74-4.91,4.41,0-8-.25-15.17,0-22.27.8-19.06,1.87-38.1,2.77-57.15a102,102,0,0,0,0-11.33,14.83,14.83,0,0,0-29.58-.26c-.2,2.17-.14,4.37-.15,6.56-.07,8.74,0,17.49-.21,26.23q-1.87,79.85-3.85,159.69c-.15,6.16-.06,12.32,0,18.48a21.76,21.76,0,0,0,7.11,16.49c4.88,4.47,10.75,5.16,16.7,2.86,5.35-2.07,6.7-6.91,6.8-12.2,0-2.58.14-5.16.14-7.75q0-32.79,0-65.58Zm-300.17-1.05c1.81,9.44,3.43,18.18,5.17,26.9,2.76,13.84,5.87,27.62,12.27,40.32a54.35,54.35,0,0,0,7.78,11.16c3.09,3.52,7.35,4.46,12,3.38,8-1.86,13.2-9.43,11.42-17.52a156,156,0,0,0-4.63-15.38c-2.85-8.66-6.7-17.1-8.61-26-10.55-49.1-21.72-98.07-30.49-147.54a34.86,34.86,0,0,0-4.7-12.09c-4.84-7.72-12.76-8.6-18.78-1.94a204.87,204.87,0,0,0-16.67,21c-22.08,32.11-42,65.57-60.71,99.73-1.56,2.86-3.15,5-6.55,6.28-9.57,3.5-12.75,10.58-9.47,20.45a7.59,7.59,0,0,1-.36,6.18c-3.5,7.35-7,14.7-10.21,22.19-3.49,8.21-6.93,16.47-9.79,24.92-2.51,7.42,1.08,14.36,8.25,17.6a14.28,14.28,0,0,0,18.28-5.36,37.64,37.64,0,0,0,2.79-5.25c7.43-16.47,14.9-32.92,22.18-49.45,1.22-2.77,2.53-4.41,5.78-5,18.71-3.66,37.34-7.68,56-11.43C1305.32,302.46,1311.56,301.65,1318.16,300.59Zm135-114.24c0,2.09.09,3.62,0,5.15-.92,14.47-2.33,28.92-2.71,43.4-.51,20-.36,40.11-.29,60.16,0,14.88.51,29.77.61,44.65,0,3.3-.71,6.61-1.18,10.58-11,.94-21.66,1.87-32.31,2.77-8.93.75-14.39,6.86-14.15,15.88.23,8.46,6.22,14.5,15,14.28a229.77,229.77,0,0,0,23.74-1.82c15-1.93,30-3.52,45.12-3.43,13.3.08,26.62-.27,39.92-.6,9-.23,14.51-6.26,14.89-15.21a15.26,15.26,0,0,0-15.51-15.91c-12.11.51-24.24.38-36.36.48-3.08,0-6.16-.16-9.09-.24.62-53.31-3.28-105.93,2.94-158.64a39.4,39.4,0,0,1,4.75,0c7.09.89,14.16,2,21.26,2.77,7.31.75,14.65,1.52,22,1.55,8.58,0,14.34-5.46,14.83-13.18.66-10.26-3.45-16.39-12.78-17.5-19.32-2.29-38.65-4.9-58-5.89-18.82-1-37.74-.14-56.61,0a42.78,42.78,0,0,0-8.85,1.1,12.31,12.31,0,0,0-10,9.84c-2.76,11.8,4.84,21,15.76,20.43,10.31-.57,20.65-.49,31-.68C1448.93,186.31,1450.86,186.35,1453.18,186.35Z"/><path d="M63.88,515.08V67.56H959.06c1.14,4.54,1.52,439,.43,446.92C955.19,515.8,78.81,516.45,63.88,515.08Zm130-322.23c18.37-4.75,36.68-7.74,55.48-7,12.36.48,24.44,2.77,36.41,5.75,6.82,1.7,12-.63,15.12-6.32,4-7.47,1.25-15.89-6.71-19.31-9.77-4.2-20.18-5.77-30.68-6.87-23.62-2.48-46.79.2-69.65,6.16a11.68,11.68,0,0,1-9-.77c-9.51-4.69-18.42.77-18.9,11.35-.22,4.73.36,9.5.68,14.25.5,7.32,1.55,14.63,1.53,21.94,0,10.91-.71,21.83-1.29,32.74-.31,5.73-.24,11.65-1.76,17.09-1.35,4.78-2.18,9.11-.76,13.91.49,1.64.14,3.54.1,5.32-.29,15.48-.8,31-.83,46.45a94.2,94.2,0,0,0,4.16,27c3.21,10.83,10.07,18,21.2,20.31,8.14,1.67,16.42,3.25,24.69,3.55,14.88.55,29.8.34,44.7,0a147.58,147.58,0,0,0,21.9-2.18c8.5-1.48,12.06-7.24,10.92-16.16-.93-7.37-6.08-11.33-14.39-11-1.19,0-2.36.33-3.55.42-6.92.55-13.83,1.21-20.76,1.58-7.14.38-14.3.66-21.45.67-9.72,0-19.46.12-29.15-.52-7.86-.53-9.57-2.47-10.62-10.22a157.13,157.13,0,0,1-1.36-17.2c-.33-13.47-.28-27,1.32-40.81,5.29-.51,10.39-1,15.49-1.49q35.9-3.33,71.79-6.68c2.55-.24,5.38-.37,7.49-1.58,2.43-1.39,5-3.57,6.12-6,4.29-9.5-1.77-18.9-12.19-19.5a32.89,32.89,0,0,0-4.75.2q-39.18,3.54-78.34,7.09a30.61,30.61,0,0,1-4-.16C193.55,234.14,196.06,214,193.9,192.85ZM772.08,257.3c0-5.77-.13-11.9,0-18,.4-15.89,1.28-31.78,1.26-47.66A128.82,128.82,0,0,0,770.83,168c-1.3-6.89-6.5-9.75-14-9a12.06,12.06,0,0,0-11.16,11.84,32.07,32.07,0,0,0,.3,8.32c2.58,11.41,1.67,22.87,1.34,34.4-.54,18.67-.28,37.36-.46,56-.23,23.05-.5,46.1-.94,69.15a84.33,84.33,0,0,1-1.67,14.15c-1.44,7.52,2,13.88,8.91,15.86,7.16,2,13.53-1.25,16.08-8.57a31.14,31.14,0,0,0,1.69-8.14c.82-12.28,2.11-24.59,1.92-36.87-.13-8.94,1.77-16.68,6.64-24.07s8.89-15.08,15.34-21.18c6.07-5.75,13-9.78,21.48-10.64s12.46,1.79,14.1,10a77.46,77.46,0,0,1,1.36,17.73c-.6,16.93-.28,33.79,2.42,50.52,1.49,9.2,3,18.44,5.35,27.44,2,7.51,8.47,10.53,15.95,8.57,6.64-1.75,10.47-8.1,9.15-15.25-.58-3.12-1.37-6.21-1.89-9.34-3.72-22.37-5.41-44.92-6.29-67.58a154.32,154.32,0,0,0-3.43-27.1c-2.78-12.6-11.45-19.47-24.15-21.47-17.34-2.73-32.12,2.62-45,14C780.05,250.31,776.17,253.7,772.08,257.3ZM357,254.4l-1.22-.54c0-4,.26-8-.08-11.9a37.27,37.27,0,0,0-2.06-9.83c-2.33-6.12-7.19-8.51-13.9-7.45a12.2,12.2,0,0,0-10.3,11.45c-.18,3,0,6,.05,8.94.07,10.72.32,21.44.13,32.15-.12,7.34-.71,14.69-1.37,22a314.43,314.43,0,0,0-.11,60.66c1,9.87,10.16,15.54,18.95,11.14,5.72-2.87,7.36-8,7-14-.26-4.95-.59-9.92-1.21-14.85-1.4-11-.14-22,2.18-32.56,3.43-15.61,10.34-30.1,21.3-42.08A50,50,0,0,1,389.84,257c11.44-5.94,17.93-2.49,19.48,10.15.94,7.65.86,15.44,1,23.17.19,11.9-.44,23.84.37,35.69.88,12.85,2.87,25.64,4.66,38.42,1,7,4.9,10.44,11.38,10.77,8.78.43,14.42-4.68,14.39-13.59A106.2,106.2,0,0,0,439.81,345c-2.93-18.08-5-36.18-4.12-54.55a140.47,140.47,0,0,0-.23-15.49c-.64-9.93-1.71-19.81-5.82-29.05-4.63-10.42-12.42-16.65-23.95-18.14-9.51-1.22-18.12,1.08-26.21,5.88-7.27,4.32-13.17,10.2-18.69,16.51Zm218.69,45.41c-.55-5.92-.83-11.89-1.72-17.76-1.85-12.12-5.83-23.49-13.31-33.39-6.06-8-13.77-13.93-23.8-15.73-23.87-4.28-44.07,2.25-59.36,21.57-12.47,15.74-17.73,34-17.42,53.88.22,14.08,3,27.56,10.67,39.75,21.73,34.76,68.23,33.54,89.25,3.34C570.86,335.86,575.34,318.57,575.68,299.81Zm26.41,13c.66,5.62,1,10.38,1.83,15a53.11,53.11,0,0,0,3,10.27c12.11,30,45.62,41,70.14,35.11a92,92,0,0,0,26.36-10.77,37.24,37.24,0,0,0,9-7.6c3.84-4.56,3.24-10.6-.77-15.24-3.83-4.44-8.28-5.31-13.89-2.49q-6.65,3.34-13.12,7c-9.22,5.26-19,6.58-29.33,4.56-14.73-2.87-25.68-13-28.07-27.19a46.31,46.31,0,0,1,.06-15.36c2.69-15.33,9.55-28.95,18.94-41.26a35.19,35.19,0,0,1,8.15-7.73,17.79,17.79,0,0,1,8.75-3.28c10.45-.37,20.72.56,28.91,8.35a17.64,17.64,0,0,0,2.84,2.17,10.74,10.74,0,0,0,14.82-2.77,12.65,12.65,0,0,0-.42-16.44,33.7,33.7,0,0,0-8.8-7,77,77,0,0,0-27-8.79,62.55,62.55,0,0,0-13-.59c-11.51.92-20.64,6.81-28.24,15.05a113.69,113.69,0,0,0-27,49.73C603.56,300.12,603,306.89,602.09,312.78Z"/><path d="M551.17,302c-.74,6.08-1,12.27-2.34,18.21a35.27,35.27,0,0,1-15.36,21.88c-14.57,9.74-32.77,5.53-41.75-9.51a41.35,41.35,0,0,1-5.44-19.88c-.54-14,2.25-27.22,10.11-39.06,5.93-8.93,14.07-14.3,25-15.14s19.75,3.73,24,13.87c2.46,5.95,3.54,12.51,4.8,18.89.68,3.46.41,7.11.58,10.68Z"/></g></g></svg>